<?xml version="1.0" encoding="UTF-8"?>
<svg xmlns="http://www.w3.org/2000/svg" xmlns:xlink="http://www.w3.org/1999/xlink" width="810pt" height="809.999993pt" viewBox="0 0 810 809.999993" version="1.2">
<defs>
<clipPath id="clip1">
  <path d="M 174 464 L 324 464 L 324 691 L 174 691 Z M 174 464 "/>
</clipPath>
<clipPath id="clip2">
  <path d="M -42.648438 211.710938 L 458.5625 -33.546875 L 703.820312 467.664062 L 202.609375 712.921875 Z M -42.648438 211.710938 "/>
</clipPath>
<clipPath id="clip3">
  <path d="M -42.648438 211.710938 L 458.5625 -33.546875 L 703.820312 467.664062 L 202.609375 712.921875 Z M -42.648438 211.710938 "/>
</clipPath>
<clipPath id="clip4">
  <path d="M 111.441406 526.617188 L 298.296875 435.183594 L 389.730469 622.039062 L 202.878906 713.472656 Z M 111.441406 526.617188 "/>
</clipPath>
<clipPath id="clip5">
  <path d="M 111.441406 526.617188 L 298.296875 435.183594 L 389.523438 621.609375 L 202.667969 713.042969 Z M 111.441406 526.617188 "/>
</clipPath>
<clipPath id="clip6">
  <path d="M 166 58 L 556 58 L 556 465 L 166 465 Z M 166 58 "/>
</clipPath>
<clipPath id="clip7">
  <path d="M -42.648438 211.710938 L 458.5625 -33.546875 L 703.820312 467.664062 L 202.609375 712.921875 Z M -42.648438 211.710938 "/>
</clipPath>
<clipPath id="clip8">
  <path d="M -42.648438 211.710938 L 458.5625 -33.546875 L 703.820312 467.664062 L 202.609375 712.921875 Z M -42.648438 211.710938 "/>
</clipPath>
<clipPath id="clip9">
  <path d="M 393 606 L 728 606 L 728 728.859375 L 393 728.859375 Z M 393 606 "/>
</clipPath>
</defs>
<g id="surface1">
<g clip-path="url(#clip1)" clip-rule="nonzero">
<g clip-path="url(#clip2)" clip-rule="nonzero">
<g clip-path="url(#clip3)" clip-rule="nonzero">
<g clip-path="url(#clip4)" clip-rule="nonzero">
<g clip-path="url(#clip5)" clip-rule="nonzero">
<path style=" stroke:none;fill-rule:nonzero;fill:rgb(50.588989%,69.799805%,7.839966%);fill-opacity:1;" d="M 263.914062 466.058594 C 250.058594 461.34375 235.117188 468.65625 230.855469 482.234375 L 176.257812 641.457031 C 171.542969 655.3125 178.855469 670.253906 192.4375 674.519531 L 234.746094 688.992188 C 241.675781 691.402344 248.351562 690.691406 254.574219 687.644531 C 260.757812 684.617188 265.722656 678.996094 267.808594 672.8125 L 322.382812 513.65625 C 327.140625 499.777344 319.804688 484.792969 306.203125 480.59375 L 263.914062 466.058594 "/>
</g>
</g>
</g>
</g>
</g>
<g clip-path="url(#clip6)" clip-rule="nonzero">
<g clip-path="url(#clip7)" clip-rule="nonzero">
<g clip-path="url(#clip8)" clip-rule="nonzero">
<path style=" stroke:none;fill-rule:nonzero;fill:rgb(50.588989%,69.799805%,7.839966%);fill-opacity:1;" d="M 506.507812 303.871094 C 493.027344 343.089844 465.542969 374.472656 428.359375 392.667969 C 391.179688 410.863281 349.492188 413.324219 310.25 399.90625 C 229.488281 372.214844 186.523438 284.410156 214.46875 204.164062 C 242.160156 123.402344 330.480469 80.183594 410.472656 107.613281 C 491.238281 135.304688 534.203125 223.109375 506.507812 303.871094 Z M 423.902344 69.699219 C 322.148438 34.34375 211.074219 88.695312 176.554688 190.734375 C 145.441406 281.472656 185.6875 382.101562 270.175781 426.542969 L 267.28125 434.984375 C 264.605469 442.675781 268.914062 451.480469 276.628906 454.089844 L 304.320312 463.582031 C 311.992188 466.214844 320.792969 461.90625 323.425781 454.234375 L 326.320312 445.792969 C 367.917969 453.589844 409.855469 446.53125 446.050781 428.820312 C 490.960938 406.84375 528.046875 367.570312 544.941406 317.050781 C 579.507812 214.988281 525.425781 104.472656 423.902344 69.699219 "/>
</g>
</g>
</g>
<path style=" stroke:none;fill-rule:nonzero;fill:rgb(50.588989%,69.799805%,7.839966%);fill-opacity:1;" d="M 560.40625 612.269531 L 403.140625 509.242188 L 560.40625 406.21875 L 717.671875 509.242188 Z M 560.40625 612.269531 "/>
<path style=" stroke:none;fill-rule:nonzero;fill:rgb(50.588989%,69.799805%,7.839966%);fill-opacity:1;" d="M 560.40625 622.101562 C 558.527344 622.101562 556.648438 621.566406 555.011719 620.488281 L 397.742188 517.46875 C 394.96875 515.648438 393.296875 512.558594 393.296875 509.242188 C 393.296875 505.925781 394.964844 502.832031 397.742188 501.015625 L 555.011719 397.992188 C 558.285156 395.847656 562.527344 395.847656 565.804688 397.992188 L 723.070312 501.015625 C 725.847656 502.832031 727.519531 505.925781 727.519531 509.242188 C 727.519531 512.558594 725.847656 515.648438 723.070312 517.46875 L 565.804688 620.488281 C 564.164062 621.566406 562.289062 622.101562 560.40625 622.101562 Z M 421.09375 509.242188 L 560.40625 600.503906 L 699.71875 509.242188 L 560.40625 417.976562 Z M 421.09375 509.242188 "/>
<g clip-path="url(#clip9)" clip-rule="nonzero">
<path style=" stroke:none;fill-rule:nonzero;fill:rgb(50.588989%,69.799805%,7.839966%);fill-opacity:1;" d="M 560.40625 728.835938 C 558.523438 728.835938 556.648438 728.296875 555.011719 727.226562 L 397.742188 624.203125 C 393.195312 621.226562 391.925781 615.121094 394.90625 610.582031 C 397.886719 606.039062 403.992188 604.765625 408.539062 607.746094 L 560.40625 707.238281 L 712.273438 607.746094 C 716.808594 604.765625 722.921875 606.039062 725.902344 610.582031 C 728.882812 615.121094 727.613281 621.222656 723.066406 624.203125 L 565.800781 727.222656 C 564.164062 728.296875 562.289062 728.835938 560.40625 728.835938 Z M 560.40625 728.835938 "/>
</g>
<path style=" stroke:none;fill-rule:nonzero;fill:rgb(50.588989%,69.799805%,7.839966%);fill-opacity:1;" d="M 716.035156 572.789062 C 712.828125 572.789062 709.6875 571.230469 707.792969 568.351562 C 704.8125 563.808594 706.074219 557.710938 710.621094 554.730469 L 712.265625 553.652344 C 716.8125 550.675781 722.914062 551.929688 725.894531 556.476562 C 728.882812 561.015625 727.617188 567.117188 723.070312 570.09375 L 721.425781 571.171875 C 719.761719 572.265625 717.886719 572.789062 716.035156 572.789062 Z M 716.035156 572.789062 "/>
<path style=" stroke:none;fill-rule:nonzero;fill:rgb(50.588989%,69.799805%,7.839966%);fill-opacity:1;" d="M 590.339844 655.125 C 587.132812 655.125 583.988281 653.558594 582.097656 650.671875 C 579.117188 646.136719 580.390625 640.03125 584.9375 637.0625 L 588.082031 635.003906 C 592.632812 632.03125 598.730469 633.300781 601.707031 637.847656 C 604.6875 642.386719 603.414062 648.488281 598.867188 651.460938 L 595.722656 653.519531 C 594.0625 654.605469 592.191406 655.125 590.339844 655.125 Z M 621.765625 634.542969 C 618.558594 634.542969 615.414062 632.980469 613.523438 630.101562 C 610.542969 625.5625 611.808594 619.460938 616.355469 616.484375 L 619.496094 614.429688 C 624.039062 611.441406 630.144531 612.710938 633.125 617.253906 C 636.109375 621.792969 634.839844 627.890625 630.296875 630.871094 L 627.15625 632.929688 C 625.492188 634.019531 623.617188 634.542969 621.765625 634.542969 Z M 653.1875 613.957031 C 649.976562 613.957031 646.832031 612.394531 644.941406 609.507812 C 641.960938 604.96875 643.234375 598.867188 647.785156 595.886719 L 650.925781 593.835938 C 655.472656 590.867188 661.578125 592.136719 664.554688 596.675781 C 667.53125 601.21875 666.261719 607.316406 661.710938 610.292969 L 658.570312 612.351562 C 656.910156 613.4375 655.035156 613.957031 653.1875 613.957031 Z M 684.613281 593.375 C 681.402344 593.375 678.261719 591.8125 676.371094 588.933594 C 673.386719 584.394531 674.65625 578.296875 679.199219 575.320312 L 682.339844 573.261719 C 686.886719 570.277344 692.992188 571.539062 695.972656 576.089844 C 698.953125 580.628906 697.6875 586.726562 693.140625 589.703125 L 690 591.761719 C 688.335938 592.851562 686.464844 593.375 684.613281 593.375 Z M 684.613281 593.375 "/>
<path style=" stroke:none;fill-rule:nonzero;fill:rgb(50.588989%,69.799805%,7.839966%);fill-opacity:1;" d="M 560.40625 674.726562 C 558.523438 674.726562 556.644531 674.191406 555.003906 673.117188 L 553.355469 672.039062 C 548.8125 669.058594 547.546875 662.960938 550.53125 658.417969 C 552.746094 655.050781 556.675781 653.484375 560.40625 654.113281 C 564.148438 653.484375 568.070312 655.050781 570.28125 658.417969 C 573.261719 662.960938 572 669.058594 567.453125 672.039062 L 565.808594 673.117188 C 564.167969 674.191406 562.289062 674.726562 560.40625 674.726562 Z M 560.40625 674.726562 "/>
<path style=" stroke:none;fill-rule:nonzero;fill:rgb(50.588989%,69.799805%,7.839966%);fill-opacity:1;" d="M 530.46875 655.125 C 528.617188 655.125 526.742188 654.601562 525.078125 653.511719 L 521.9375 651.453125 C 517.390625 648.472656 516.125 642.375 519.105469 637.835938 C 522.085938 633.289062 528.1875 632.027344 532.738281 635.011719 L 535.878906 637.066406 C 540.425781 640.042969 541.691406 646.144531 538.710938 650.683594 C 536.820312 653.5625 533.675781 655.125 530.46875 655.125 Z M 499.046875 634.539062 C 497.199219 634.539062 495.324219 634.019531 493.664062 632.933594 L 490.519531 630.878906 C 485.972656 627.898438 484.699219 621.804688 487.679688 617.257812 C 490.65625 612.714844 496.757812 611.445312 501.308594 614.417969 L 504.449219 616.476562 C 509 619.453125 510.269531 625.550781 507.289062 630.089844 C 505.402344 632.976562 502.253906 634.539062 499.046875 634.539062 Z M 467.621094 613.957031 C 465.769531 613.957031 463.898438 613.433594 462.230469 612.34375 L 459.089844 610.28125 C 454.542969 607.304688 453.277344 601.207031 456.257812 596.667969 C 459.238281 592.121094 465.339844 590.851562 469.890625 593.84375 L 473.03125 595.898438 C 477.578125 598.875 478.847656 604.976562 475.863281 609.515625 C 473.976562 612.394531 470.828125 613.957031 467.621094 613.957031 Z M 436.199219 593.371094 C 434.351562 593.371094 432.480469 592.851562 430.816406 591.765625 L 427.671875 589.710938 C 423.125 586.734375 421.851562 580.640625 424.828125 576.09375 C 427.804688 571.554688 433.902344 570.273438 438.457031 573.253906 L 441.597656 575.304688 C 446.148438 578.28125 447.421875 584.375 444.445312 588.921875 C 442.558594 591.804688 439.410156 593.371094 436.199219 593.371094 Z M 436.199219 593.371094 "/>
<path style=" stroke:none;fill-rule:nonzero;fill:rgb(50.588989%,69.799805%,7.839966%);fill-opacity:1;" d="M 404.777344 572.789062 C 402.921875 572.789062 401.046875 572.265625 399.382812 571.171875 L 397.738281 570.09375 C 393.191406 567.113281 391.925781 561.015625 394.910156 556.472656 C 397.894531 551.929688 403.996094 550.671875 408.542969 553.652344 L 410.1875 554.730469 C 414.734375 557.710938 416 563.808594 413.015625 568.351562 C 411.125 571.230469 407.980469 572.789062 404.777344 572.789062 Z M 404.777344 572.789062 "/>
</g>
</svg>
