<?xml version="1.0" encoding="UTF-8"?>
<svg xmlns="http://www.w3.org/2000/svg" xmlns:xlink="http://www.w3.org/1999/xlink" width="810pt" height="809.999993pt" viewBox="0 0 810 809.999993" version="1.2">
<defs>
<clipPath id="clip1">
  <path d="M 101 484 L 709 484 L 709 707.625 L 101 707.625 Z M 101 484 "/>
</clipPath>
</defs>
<g id="surface1">
<path style=" stroke:none;fill-rule:nonzero;fill:rgb(50.588989%,69.799805%,7.839966%);fill-opacity:1;" d="M 404.945312 495.710938 L 119.429688 308.457031 L 404.945312 121.203125 L 690.457031 308.457031 Z M 404.945312 495.710938 "/>
<path style=" stroke:none;fill-rule:nonzero;fill:rgb(50.588989%,69.799805%,7.839966%);fill-opacity:1;" d="M 404.945312 513.582031 C 401.535156 513.582031 398.125 512.609375 395.148438 510.65625 L 109.628906 323.40625 C 104.589844 320.101562 101.554688 314.480469 101.554688 308.457031 C 101.554688 302.425781 104.585938 296.804688 109.628906 293.503906 L 395.148438 106.246094 C 401.09375 102.351562 408.796875 102.351562 414.746094 106.246094 L 700.257812 293.503906 C 705.300781 296.804688 708.332031 302.425781 708.332031 308.457031 C 708.332031 314.480469 705.300781 320.101562 700.257812 323.40625 L 414.746094 510.652344 C 411.765625 512.609375 408.359375 513.582031 404.945312 513.582031 Z M 152.027344 308.457031 L 404.945312 474.332031 L 657.863281 308.457031 L 404.945312 142.574219 Z M 152.027344 308.457031 "/>
<g clip-path="url(#clip1)" clip-rule="nonzero">
<path style=" stroke:none;fill-rule:nonzero;fill:rgb(50.588989%,69.799805%,7.839966%);fill-opacity:1;" d="M 404.945312 707.582031 C 401.527344 707.582031 398.125 706.605469 395.148438 704.660156 L 109.628906 517.402344 C 101.375 511.992188 99.070312 500.898438 104.480469 492.644531 C 109.894531 484.390625 120.972656 482.078125 129.226562 487.492188 L 404.945312 668.328125 L 680.65625 487.492188 C 688.894531 482.078125 699.992188 484.390625 705.398438 492.644531 C 710.808594 500.898438 708.507812 511.984375 700.25 517.402344 L 414.738281 704.652344 C 411.765625 706.605469 408.359375 707.582031 404.945312 707.582031 Z M 404.945312 707.582031 "/>
</g>
<path style=" stroke:none;fill-rule:nonzero;fill:rgb(50.588989%,69.799805%,7.839966%);fill-opacity:1;" d="M 687.484375 423.957031 C 681.664062 423.957031 675.960938 421.121094 672.523438 415.890625 C 667.109375 407.636719 669.40625 396.550781 677.65625 391.132812 L 680.640625 389.175781 C 688.898438 383.761719 699.972656 386.046875 705.386719 394.304688 C 710.808594 402.558594 708.511719 413.644531 700.261719 419.054688 L 697.273438 421.015625 C 694.253906 423.003906 690.851562 423.957031 687.484375 423.957031 Z M 687.484375 423.957031 "/>
<path style=" stroke:none;fill-rule:nonzero;fill:rgb(50.588989%,69.799805%,7.839966%);fill-opacity:1;" d="M 459.289062 573.605469 C 453.464844 573.605469 447.753906 570.757812 444.324219 565.515625 C 438.914062 557.269531 441.226562 546.175781 449.480469 540.777344 L 455.183594 537.035156 C 463.449219 531.636719 474.523438 533.941406 479.925781 542.203125 C 485.335938 550.449219 483.023438 561.542969 474.765625 566.945312 L 469.0625 570.691406 C 466.042969 572.664062 462.648438 573.605469 459.289062 573.605469 Z M 516.339844 536.199219 C 510.515625 536.199219 504.8125 533.355469 501.378906 528.128906 C 495.964844 519.875 498.265625 508.789062 506.519531 503.375 L 512.222656 499.636719 C 520.46875 494.210938 531.550781 496.511719 536.964844 504.777344 C 542.378906 513.027344 540.078125 524.109375 531.828125 529.523438 L 526.125 533.265625 C 523.105469 535.246094 519.699219 536.199219 516.339844 536.199219 Z M 573.386719 498.777344 C 567.558594 498.777344 561.847656 495.9375 558.417969 490.691406 C 553.007812 482.441406 555.316406 471.351562 563.578125 465.941406 L 569.277344 462.210938 C 577.539062 456.8125 588.621094 459.117188 594.023438 467.375 C 599.429688 475.628906 597.125 486.714844 588.863281 492.121094 L 583.164062 495.859375 C 580.144531 497.839844 576.746094 498.777344 573.386719 498.777344 Z M 630.4375 461.371094 C 624.613281 461.371094 618.90625 458.53125 615.476562 453.300781 C 610.0625 445.050781 612.363281 433.964844 620.613281 428.554688 L 626.3125 424.8125 C 634.570312 419.390625 645.652344 421.683594 651.0625 429.953125 C 656.472656 438.203125 654.175781 449.285156 645.921875 454.695312 L 640.222656 458.441406 C 637.203125 460.421875 633.800781 461.371094 630.4375 461.371094 Z M 630.4375 461.371094 "/>
<path style=" stroke:none;fill-rule:nonzero;fill:rgb(50.588989%,69.799805%,7.839966%);fill-opacity:1;" d="M 404.945312 609.234375 C 401.523438 609.234375 398.113281 608.257812 395.132812 606.308594 L 392.144531 604.347656 C 383.894531 598.929688 381.59375 587.847656 387.015625 579.589844 C 391.035156 573.472656 398.167969 570.625 404.945312 571.769531 C 411.742188 570.625 418.855469 573.472656 422.871094 579.589844 C 428.285156 587.847656 425.992188 598.929688 417.738281 604.347656 L 414.753906 606.308594 C 411.773438 608.261719 408.359375 609.234375 404.945312 609.234375 Z M 404.945312 609.234375 "/>
<path style=" stroke:none;fill-rule:nonzero;fill:rgb(50.588989%,69.799805%,7.839966%);fill-opacity:1;" d="M 350.59375 573.605469 C 347.234375 573.605469 343.828125 572.65625 340.804688 570.675781 L 335.101562 566.933594 C 326.847656 561.519531 324.550781 550.433594 329.964844 542.179688 C 335.375 533.917969 346.453125 531.621094 354.710938 537.046875 L 360.417969 540.785156 C 368.667969 546.195312 370.96875 557.285156 365.554688 565.53125 C 362.121094 570.765625 356.414062 573.605469 350.59375 573.605469 Z M 293.546875 536.191406 C 290.1875 536.191406 286.789062 535.246094 283.769531 533.269531 L 278.066406 529.535156 C 269.808594 524.121094 267.5 513.042969 272.90625 504.78125 C 278.316406 496.527344 289.394531 494.210938 297.652344 499.621094 L 303.351562 503.359375 C 311.613281 508.765625 313.921875 519.851562 308.511719 528.105469 C 305.082031 533.351562 299.367188 536.191406 293.546875 536.191406 Z M 236.492188 498.777344 C 233.132812 498.777344 229.730469 497.832031 226.707031 495.847656 L 221.003906 492.101562 C 212.75 486.691406 210.453125 475.609375 215.863281 467.355469 C 221.269531 459.09375 232.351562 456.789062 240.613281 462.222656 L 246.316406 465.960938 C 254.566406 471.371094 256.871094 482.460938 251.453125 490.707031 C 248.027344 495.941406 242.316406 498.777344 236.492188 498.777344 Z M 179.445312 461.367188 C 176.089844 461.367188 172.695312 460.421875 169.671875 458.449219 L 163.964844 454.710938 C 155.707031 449.300781 153.394531 438.226562 158.796875 429.960938 C 164.207031 421.707031 175.273438 419.386719 183.542969 424.796875 L 189.25 428.53125 C 197.507812 433.941406 199.824219 445.011719 194.414062 453.28125 C 190.988281 458.515625 185.277344 461.367188 179.445312 461.367188 Z M 179.445312 461.367188 "/>
<path style=" stroke:none;fill-rule:nonzero;fill:rgb(50.588989%,69.799805%,7.839966%);fill-opacity:1;" d="M 122.398438 423.957031 C 119.03125 423.957031 115.628906 423.003906 112.609375 421.015625 L 109.621094 419.054688 C 101.367188 413.640625 99.070312 402.554688 104.484375 394.300781 C 109.90625 386.046875 120.984375 383.757812 129.234375 389.175781 L 132.222656 391.132812 C 140.476562 396.546875 142.773438 407.636719 137.355469 415.886719 C 133.925781 421.121094 128.21875 423.957031 122.398438 423.957031 Z M 122.398438 423.957031 "/>
</g>
</svg>
