<?xml version="1.0" encoding="UTF-8"?>
<svg xmlns="http://www.w3.org/2000/svg" xmlns:xlink="http://www.w3.org/1999/xlink" width="810pt" height="809.999993pt" viewBox="0 0 810 809.999993" version="1.2">
<g id="surface1">
<path style=" stroke:none;fill-rule:nonzero;fill:rgb(50.588989%,69.799805%,7.839966%);fill-opacity:1;" d="M 132.042969 124.125 C 130.835938 124.125 129.632812 124.15625 128.425781 124.214844 C 127.222656 124.273438 126.023438 124.363281 124.820312 124.480469 C 123.621094 124.597656 122.425781 124.746094 121.234375 124.921875 C 120.042969 125.097656 118.855469 125.304688 117.671875 125.539062 C 116.492188 125.773438 115.316406 126.039062 114.144531 126.332031 C 112.976562 126.625 111.816406 126.945312 110.660156 127.296875 C 109.507812 127.644531 108.363281 128.023438 107.230469 128.429688 C 106.09375 128.835938 104.96875 129.269531 103.855469 129.730469 C 102.742188 130.191406 101.640625 130.679688 100.550781 131.195312 C 99.460938 131.710938 98.386719 132.253906 97.324219 132.820312 C 96.261719 133.390625 95.210938 133.984375 94.179688 134.601562 C 93.144531 135.222656 92.125 135.867188 91.125 136.535156 C 90.121094 137.207031 89.136719 137.902344 88.167969 138.617188 C 87.199219 139.335938 86.25 140.078125 85.320312 140.84375 C 84.386719 141.605469 83.472656 142.394531 82.582031 143.203125 C 81.6875 144.011719 80.816406 144.84375 79.964844 145.695312 C 79.109375 146.546875 78.28125 147.421875 77.472656 148.3125 C 76.660156 149.207031 75.875 150.121094 75.109375 151.050781 C 74.34375 151.984375 73.605469 152.933594 72.886719 153.902344 C 72.167969 154.871094 71.472656 155.855469 70.804688 156.855469 C 70.132812 157.859375 69.488281 158.878906 68.871094 159.910156 C 68.25 160.945312 67.65625 161.992188 67.089844 163.054688 C 66.519531 164.117188 65.980469 165.195312 65.464844 166.285156 C 64.949219 167.375 64.460938 168.476562 64 169.589844 C 63.535156 170.703125 63.101562 171.828125 62.699219 172.960938 C 62.292969 174.097656 61.914062 175.242188 61.5625 176.394531 C 61.214844 177.546875 60.890625 178.710938 60.597656 179.878906 C 60.304688 181.046875 60.042969 182.222656 59.808594 183.40625 C 59.570312 184.589844 59.367188 185.773438 59.1875 186.96875 C 59.011719 188.160156 58.863281 189.355469 58.746094 190.554688 C 58.628906 191.753906 58.539062 192.957031 58.480469 194.160156 C 58.421875 195.363281 58.390625 196.570312 58.390625 197.773438 C 58.390625 198.980469 58.421875 200.183594 58.480469 201.386719 C 58.539062 202.589844 58.628906 203.792969 58.746094 204.992188 C 58.863281 206.191406 59.011719 207.386719 59.1875 208.582031 C 59.367188 209.773438 59.570312 210.960938 59.808594 212.140625 C 60.042969 213.324219 60.304688 214.5 60.597656 215.667969 C 60.890625 216.839844 61.214844 218 61.5625 219.152344 C 61.914062 220.304688 62.292969 221.449219 62.699219 222.585938 C 63.101562 223.71875 63.535156 224.84375 64 225.957031 C 64.460938 227.070312 64.949219 228.171875 65.464844 229.261719 C 65.980469 230.351562 66.519531 231.429688 67.089844 232.492188 C 67.65625 233.554688 68.25 234.601562 68.871094 235.636719 C 69.488281 236.671875 70.132812 237.6875 70.804688 238.691406 C 71.472656 239.691406 72.167969 240.679688 72.886719 241.648438 C 73.605469 242.613281 74.34375 243.566406 75.109375 244.496094 C 75.875 245.429688 76.660156 246.339844 77.472656 247.234375 C 78.28125 248.125 79.109375 249 79.964844 249.851562 C 80.816406 250.703125 81.6875 251.535156 82.582031 252.34375 C 83.472656 253.152344 84.386719 253.941406 85.320312 254.707031 C 86.25 255.46875 87.199219 256.210938 88.167969 256.929688 C 89.136719 257.648438 90.121094 258.339844 91.125 259.011719 C 92.125 259.679688 93.144531 260.324219 94.179688 260.945312 C 95.210938 261.5625 96.261719 262.160156 97.324219 262.726562 C 98.386719 263.292969 99.460938 263.835938 100.550781 264.351562 C 101.640625 264.867188 102.742188 265.355469 103.855469 265.816406 C 104.96875 266.277344 106.09375 266.710938 107.230469 267.117188 C 108.363281 267.523438 109.507812 267.902344 110.660156 268.25 C 111.816406 268.601562 112.976562 268.921875 114.144531 269.214844 C 115.316406 269.507812 116.492188 269.773438 117.671875 270.007812 C 118.855469 270.242188 120.042969 270.449219 121.234375 270.625 C 122.425781 270.800781 123.621094 270.949219 124.820312 271.066406 C 126.023438 271.1875 127.222656 271.273438 128.425781 271.335938 C 129.632812 271.394531 130.835938 271.421875 132.042969 271.421875 C 133.246094 271.421875 134.449219 271.394531 135.65625 271.335938 C 136.859375 271.273438 138.058594 271.1875 139.261719 271.066406 C 140.460938 270.949219 141.65625 270.800781 142.847656 270.625 C 144.039062 270.449219 145.226562 270.242188 146.410156 270.007812 C 147.589844 269.773438 148.765625 269.507812 149.9375 269.214844 C 151.105469 268.921875 152.265625 268.601562 153.421875 268.25 C 154.574219 267.902344 155.71875 267.523438 156.851562 267.117188 C 157.988281 266.710938 159.113281 266.277344 160.226562 265.816406 C 161.339844 265.355469 162.441406 264.867188 163.53125 264.351562 C 164.621094 263.835938 165.695312 263.292969 166.757812 262.726562 C 167.820312 262.160156 168.871094 261.5625 169.902344 260.945312 C 170.9375 260.324219 171.957031 259.679688 172.957031 259.011719 C 173.960938 258.339844 174.945312 257.648438 175.914062 256.929688 C 176.882812 256.210938 177.832031 255.46875 178.761719 254.707031 C 179.695312 253.941406 180.609375 253.152344 181.5 252.34375 C 182.394531 251.535156 183.265625 250.703125 184.117188 249.851562 C 184.972656 249 185.800781 248.125 186.613281 247.234375 C 187.421875 246.339844 188.207031 245.429688 188.972656 244.496094 C 189.738281 243.566406 190.476562 242.613281 191.195312 241.648438 C 191.914062 240.679688 192.609375 239.691406 193.277344 238.691406 C 193.949219 237.6875 194.59375 236.671875 195.210938 235.636719 C 195.832031 234.601562 196.425781 233.554688 196.992188 232.492188 C 197.5625 231.429688 198.105469 230.351562 198.617188 229.261719 C 199.132812 228.171875 199.621094 227.070312 200.082031 225.957031 C 200.546875 224.84375 200.980469 223.71875 201.386719 222.585938 C 201.789062 221.449219 202.167969 220.304688 202.519531 219.152344 C 202.867188 218 203.191406 216.839844 203.484375 215.667969 C 203.777344 214.5 204.039062 213.324219 204.273438 212.140625 C 204.511719 210.960938 204.714844 209.773438 204.894531 208.582031 C 205.070312 207.386719 205.21875 206.191406 205.335938 204.992188 C 205.453125 203.792969 205.542969 202.589844 205.601562 201.386719 C 205.660156 200.183594 205.691406 198.980469 205.691406 197.773438 C 205.691406 196.570312 205.660156 195.363281 205.601562 194.160156 C 205.542969 192.957031 205.453125 191.753906 205.335938 190.554688 C 205.21875 189.355469 205.070312 188.160156 204.894531 186.96875 C 204.714844 185.773438 204.511719 184.589844 204.273438 183.40625 C 204.039062 182.222656 203.777344 181.046875 203.484375 179.878906 C 203.191406 178.710938 202.867188 177.546875 202.519531 176.394531 C 202.167969 175.242188 201.789062 174.097656 201.386719 172.960938 C 200.980469 171.828125 200.546875 170.703125 200.082031 169.589844 C 199.621094 168.476562 199.132812 167.375 198.617188 166.285156 C 198.105469 165.195312 197.5625 164.117188 196.992188 163.054688 C 196.425781 161.992188 195.832031 160.945312 195.210938 159.910156 C 194.59375 158.878906 193.949219 157.859375 193.277344 156.855469 C 192.609375 155.855469 191.914062 154.871094 191.195312 153.902344 C 190.476562 152.933594 189.738281 151.984375 188.972656 151.050781 C 188.207031 150.121094 187.421875 149.207031 186.613281 148.3125 C 185.800781 147.421875 184.972656 146.546875 184.117188 145.695312 C 183.265625 144.84375 182.394531 144.011719 181.5 143.203125 C 180.609375 142.394531 179.695312 141.605469 178.761719 140.84375 C 177.832031 140.078125 176.882812 139.335938 175.914062 138.617188 C 174.945312 137.902344 173.960938 137.207031 172.957031 136.535156 C 171.957031 135.867188 170.9375 135.222656 169.902344 134.601562 C 168.871094 133.984375 167.820312 133.390625 166.757812 132.820312 C 165.695312 132.253906 164.621094 131.710938 163.53125 131.195312 C 162.441406 130.679688 161.339844 130.191406 160.226562 129.730469 C 159.113281 129.269531 157.988281 128.835938 156.851562 128.429688 C 155.71875 128.023438 154.574219 127.644531 153.421875 127.296875 C 152.265625 126.945312 151.105469 126.625 149.9375 126.332031 C 148.765625 126.039062 147.589844 125.773438 146.410156 125.539062 C 145.226562 125.304688 144.039062 125.097656 142.847656 124.921875 C 141.65625 124.746094 140.460938 124.597656 139.261719 124.480469 C 138.058594 124.363281 136.859375 124.273438 135.65625 124.214844 C 134.449219 124.15625 133.246094 124.125 132.042969 124.125 Z M 132.042969 124.125 "/>
<path style=" stroke:none;fill-rule:nonzero;fill:rgb(50.588989%,69.799805%,7.839966%);fill-opacity:1;" d="M 267.289062 124.125 L 752.058594 124.125 L 752.058594 271.714844 L 267.289062 271.714844 Z M 267.289062 124.125 "/>
<path style=" stroke:none;fill-rule:nonzero;fill:rgb(50.588989%,69.799805%,7.839966%);fill-opacity:1;" d="M 132.042969 327.875 C 130.835938 327.875 129.632812 327.902344 128.425781 327.960938 C 127.222656 328.019531 126.023438 328.109375 124.820312 328.226562 C 123.621094 328.347656 122.425781 328.492188 121.234375 328.671875 C 120.042969 328.847656 118.855469 329.054688 117.671875 329.289062 C 116.492188 329.523438 115.316406 329.789062 114.144531 330.082031 C 112.976562 330.375 111.816406 330.695312 110.660156 331.042969 C 109.507812 331.394531 108.363281 331.773438 107.230469 332.179688 C 106.09375 332.585938 104.96875 333.019531 103.855469 333.480469 C 102.742188 333.941406 101.640625 334.429688 100.550781 334.945312 C 99.460938 335.460938 98.386719 336 97.324219 336.570312 C 96.261719 337.136719 95.210938 337.730469 94.179688 338.351562 C 93.144531 338.972656 92.125 339.617188 91.125 340.285156 C 90.121094 340.953125 89.136719 341.648438 88.167969 342.367188 C 87.199219 343.085938 86.25 343.828125 85.320312 344.589844 C 84.386719 345.355469 83.472656 346.140625 82.582031 346.953125 C 81.6875 347.761719 80.816406 348.59375 79.964844 349.445312 C 79.109375 350.296875 78.28125 351.167969 77.472656 352.0625 C 76.660156 352.957031 75.875 353.867188 75.109375 354.800781 C 74.34375 355.730469 73.605469 356.679688 72.886719 357.648438 C 72.167969 358.617188 71.472656 359.601562 70.804688 360.605469 C 70.132812 361.605469 69.488281 362.625 68.871094 363.660156 C 68.25 364.691406 67.65625 365.742188 67.089844 366.804688 C 66.519531 367.867188 65.980469 368.945312 65.464844 370.035156 C 64.949219 371.121094 64.460938 372.222656 64 373.339844 C 63.535156 374.453125 63.101562 375.574219 62.699219 376.710938 C 62.292969 377.84375 61.914062 378.988281 61.5625 380.144531 C 61.214844 381.296875 60.890625 382.457031 60.597656 383.628906 C 60.304688 384.796875 60.042969 385.972656 59.808594 387.152344 C 59.570312 388.335938 59.367188 389.523438 59.1875 390.714844 C 59.011719 391.90625 58.863281 393.105469 58.746094 394.304688 C 58.628906 395.503906 58.539062 396.703125 58.480469 397.910156 C 58.421875 399.113281 58.390625 400.316406 58.390625 401.523438 C 58.390625 402.726562 58.421875 403.933594 58.480469 405.136719 C 58.539062 406.339844 58.628906 407.542969 58.746094 408.742188 C 58.863281 409.941406 59.011719 411.136719 59.1875 412.328125 C 59.367188 413.519531 59.570312 414.707031 59.808594 415.890625 C 60.042969 417.074219 60.304688 418.25 60.597656 419.417969 C 60.890625 420.585938 61.214844 421.746094 61.5625 422.902344 C 61.914062 424.054688 62.292969 425.199219 62.699219 426.332031 C 63.101562 427.46875 63.535156 428.59375 64 429.707031 C 64.460938 430.820312 64.949219 431.921875 65.464844 433.011719 C 65.980469 434.101562 66.519531 435.175781 67.089844 436.238281 C 67.65625 437.304688 68.25 438.351562 68.871094 439.386719 C 69.488281 440.417969 70.132812 441.4375 70.804688 442.4375 C 71.472656 443.441406 72.167969 444.425781 72.886719 445.394531 C 73.605469 446.363281 74.34375 447.3125 75.109375 448.246094 C 75.875 449.175781 76.660156 450.089844 77.472656 450.980469 C 78.28125 451.875 79.109375 452.746094 79.964844 453.601562 C 80.816406 454.453125 81.6875 455.28125 82.582031 456.09375 C 83.472656 456.902344 84.386719 457.6875 85.320312 458.453125 C 86.25 459.21875 87.199219 459.960938 88.167969 460.675781 C 89.136719 461.394531 90.121094 462.089844 91.125 462.757812 C 92.125 463.429688 93.144531 464.074219 94.179688 464.691406 C 95.210938 465.3125 96.261719 465.90625 97.324219 466.476562 C 98.386719 467.042969 99.460938 467.585938 100.550781 468.101562 C 101.640625 468.617188 102.742188 469.105469 103.855469 469.566406 C 104.96875 470.027344 106.09375 470.460938 107.230469 470.867188 C 108.363281 471.273438 109.507812 471.648438 110.660156 472 C 111.816406 472.351562 112.976562 472.671875 114.144531 472.964844 C 115.316406 473.257812 116.492188 473.519531 117.671875 473.757812 C 118.855469 473.992188 120.042969 474.195312 121.234375 474.375 C 122.425781 474.550781 123.621094 474.699219 124.820312 474.816406 C 126.023438 474.933594 127.222656 475.023438 128.425781 475.082031 C 129.632812 475.140625 130.835938 475.171875 132.042969 475.171875 C 133.246094 475.171875 134.449219 475.140625 135.65625 475.082031 C 136.859375 475.023438 138.058594 474.933594 139.261719 474.816406 C 140.460938 474.699219 141.65625 474.550781 142.847656 474.375 C 144.039062 474.195312 145.226562 473.992188 146.410156 473.757812 C 147.589844 473.519531 148.765625 473.257812 149.9375 472.964844 C 151.105469 472.671875 152.265625 472.351562 153.421875 472 C 154.574219 471.648438 155.71875 471.273438 156.851562 470.867188 C 157.988281 470.460938 159.113281 470.027344 160.226562 469.566406 C 161.339844 469.105469 162.441406 468.617188 163.53125 468.101562 C 164.621094 467.585938 165.695312 467.042969 166.757812 466.476562 C 167.820312 465.90625 168.871094 465.3125 169.902344 464.691406 C 170.9375 464.074219 171.957031 463.429688 172.957031 462.757812 C 173.960938 462.089844 174.945312 461.394531 175.914062 460.675781 C 176.882812 459.960938 177.832031 459.21875 178.761719 458.453125 C 179.695312 457.6875 180.609375 456.902344 181.5 456.09375 C 182.394531 455.28125 183.265625 454.453125 184.117188 453.601562 C 184.972656 452.746094 185.800781 451.875 186.613281 450.980469 C 187.421875 450.089844 188.207031 449.175781 188.972656 448.246094 C 189.738281 447.3125 190.476562 446.363281 191.195312 445.394531 C 191.914062 444.425781 192.609375 443.441406 193.277344 442.4375 C 193.949219 441.4375 194.59375 440.417969 195.210938 439.386719 C 195.832031 438.351562 196.425781 437.304688 196.992188 436.238281 C 197.5625 435.175781 198.105469 434.101562 198.617188 433.011719 C 199.132812 431.921875 199.621094 430.820312 200.082031 429.707031 C 200.546875 428.59375 200.980469 427.46875 201.386719 426.332031 C 201.789062 425.199219 202.167969 424.054688 202.519531 422.902344 C 202.867188 421.746094 203.191406 420.585938 203.484375 419.417969 C 203.777344 418.25 204.039062 417.074219 204.273438 415.890625 C 204.511719 414.707031 204.714844 413.519531 204.894531 412.328125 C 205.070312 411.136719 205.21875 409.941406 205.335938 408.742188 C 205.453125 407.542969 205.542969 406.339844 205.601562 405.136719 C 205.660156 403.933594 205.691406 402.726562 205.691406 401.523438 C 205.691406 400.316406 205.660156 399.113281 205.601562 397.910156 C 205.542969 396.703125 205.453125 395.503906 205.335938 394.304688 C 205.21875 393.105469 205.070312 391.90625 204.894531 390.714844 C 204.714844 389.523438 204.511719 388.335938 204.273438 387.152344 C 204.039062 385.972656 203.777344 384.796875 203.484375 383.628906 C 203.191406 382.457031 202.867188 381.296875 202.519531 380.144531 C 202.167969 378.988281 201.789062 377.84375 201.386719 376.710938 C 200.980469 375.574219 200.546875 374.453125 200.082031 373.339844 C 199.621094 372.222656 199.132812 371.121094 198.617188 370.035156 C 198.105469 368.945312 197.5625 367.867188 196.992188 366.804688 C 196.425781 365.742188 195.832031 364.691406 195.210938 363.660156 C 194.59375 362.625 193.949219 361.605469 193.277344 360.605469 C 192.609375 359.601562 191.914062 358.617188 191.195312 357.648438 C 190.476562 356.679688 189.738281 355.730469 188.972656 354.800781 C 188.207031 353.867188 187.421875 352.957031 186.613281 352.0625 C 185.800781 351.167969 184.972656 350.296875 184.117188 349.445312 C 183.265625 348.59375 182.394531 347.761719 181.5 346.953125 C 180.609375 346.140625 179.695312 345.355469 178.761719 344.589844 C 177.832031 343.828125 176.882812 343.085938 175.914062 342.367188 C 174.945312 341.648438 173.960938 340.953125 172.957031 340.285156 C 171.957031 339.617188 170.9375 338.972656 169.902344 338.351562 C 168.871094 337.730469 167.820312 337.136719 166.757812 336.570312 C 165.695312 336 164.621094 335.460938 163.53125 334.945312 C 162.441406 334.429688 161.339844 333.941406 160.226562 333.480469 C 159.113281 333.019531 157.988281 332.585938 156.851562 332.179688 C 155.71875 331.773438 154.574219 331.394531 153.421875 331.042969 C 152.265625 330.695312 151.105469 330.375 149.9375 330.082031 C 148.765625 329.789062 147.589844 329.523438 146.410156 329.289062 C 145.226562 329.054688 144.039062 328.847656 142.847656 328.671875 C 141.65625 328.492188 140.460938 328.347656 139.261719 328.226562 C 138.058594 328.109375 136.859375 328.019531 135.65625 327.960938 C 134.449219 327.902344 133.246094 327.875 132.042969 327.875 Z M 132.042969 327.875 "/>
<path style=" stroke:none;fill-rule:nonzero;fill:rgb(50.588989%,69.799805%,7.839966%);fill-opacity:1;" d="M 267.289062 327.875 L 752.058594 327.875 L 752.058594 475.464844 L 267.289062 475.464844 Z M 267.289062 327.875 "/>
<path style=" stroke:none;fill-rule:nonzero;fill:rgb(50.588989%,69.799805%,7.839966%);fill-opacity:1;" d="M 132.042969 538.578125 C 130.835938 538.578125 129.632812 538.605469 128.425781 538.664062 C 127.222656 538.726562 126.023438 538.8125 124.820312 538.933594 C 123.621094 539.050781 122.425781 539.199219 121.234375 539.375 C 120.042969 539.550781 118.855469 539.757812 117.671875 539.992188 C 116.492188 540.226562 115.316406 540.492188 114.144531 540.785156 C 112.976562 541.078125 111.816406 541.398438 110.660156 541.75 C 109.507812 542.097656 108.363281 542.476562 107.230469 542.882812 C 106.09375 543.289062 104.96875 543.722656 103.855469 544.183594 C 102.742188 544.644531 101.640625 545.132812 100.550781 545.648438 C 99.460938 546.164062 98.386719 546.707031 97.324219 547.273438 C 96.261719 547.839844 95.210938 548.433594 94.179688 549.054688 C 93.144531 549.675781 92.125 550.320312 91.125 550.988281 C 90.121094 551.660156 89.136719 552.351562 88.167969 553.070312 C 87.199219 553.789062 86.25 554.53125 85.320312 555.292969 C 84.386719 556.058594 83.472656 556.847656 82.582031 557.65625 C 81.6875 558.464844 80.816406 559.296875 79.964844 560.148438 C 79.109375 561 78.28125 561.875 77.472656 562.765625 C 76.660156 563.660156 75.875 564.570312 75.109375 565.503906 C 74.34375 566.433594 73.605469 567.386719 72.886719 568.351562 C 72.167969 569.320312 71.472656 570.304688 70.804688 571.308594 C 70.132812 572.3125 69.488281 573.328125 68.871094 574.363281 C 68.25 575.398438 67.65625 576.445312 67.089844 577.507812 C 66.519531 578.570312 65.980469 579.648438 65.464844 580.738281 C 64.949219 581.828125 64.460938 582.929688 64 584.042969 C 63.535156 585.15625 63.101562 586.28125 62.699219 587.414062 C 62.292969 588.550781 61.914062 589.695312 61.5625 590.847656 C 61.214844 592 60.890625 593.160156 60.597656 594.332031 C 60.304688 595.5 60.042969 596.675781 59.808594 597.859375 C 59.570312 599.039062 59.367188 600.226562 59.1875 601.417969 C 59.011719 602.613281 58.863281 603.808594 58.746094 605.007812 C 58.628906 606.207031 58.539062 607.410156 58.480469 608.613281 C 58.421875 609.816406 58.390625 611.019531 58.390625 612.226562 C 58.390625 613.429688 58.421875 614.636719 58.480469 615.839844 C 58.539062 617.042969 58.628906 618.246094 58.746094 619.445312 C 58.863281 620.644531 59.011719 621.839844 59.1875 623.03125 C 59.367188 624.226562 59.570312 625.410156 59.808594 626.59375 C 60.042969 627.777344 60.304688 628.953125 60.597656 630.121094 C 60.890625 631.289062 61.214844 632.453125 61.5625 633.605469 C 61.914062 634.757812 62.292969 635.902344 62.699219 637.039062 C 63.101562 638.171875 63.535156 639.296875 64 640.410156 C 64.460938 641.523438 64.949219 642.625 65.464844 643.714844 C 65.980469 644.804688 66.519531 645.882812 67.089844 646.945312 C 67.65625 648.007812 68.25 649.054688 68.871094 650.089844 C 69.488281 651.121094 70.132812 652.140625 70.804688 653.144531 C 71.472656 654.144531 72.167969 655.128906 72.886719 656.097656 C 73.605469 657.066406 74.34375 658.015625 75.109375 658.949219 C 75.875 659.878906 76.660156 660.792969 77.472656 661.6875 C 78.28125 662.578125 79.109375 663.453125 79.964844 664.304688 C 80.816406 665.15625 81.6875 665.988281 82.582031 666.796875 C 83.472656 667.605469 84.386719 668.394531 85.320312 669.15625 C 86.25 669.921875 87.199219 670.664062 88.167969 671.382812 C 89.136719 672.097656 90.121094 672.792969 91.125 673.460938 C 92.125 674.132812 93.144531 674.777344 94.179688 675.398438 C 95.210938 676.015625 96.261719 676.609375 97.324219 677.179688 C 98.386719 677.746094 99.460938 678.289062 100.550781 678.804688 C 101.640625 679.320312 102.742188 679.808594 103.855469 680.269531 C 104.96875 680.730469 106.09375 681.164062 107.230469 681.570312 C 108.363281 681.976562 109.507812 682.355469 110.660156 682.703125 C 111.816406 683.054688 112.976562 683.375 114.144531 683.667969 C 115.316406 683.960938 116.492188 684.226562 117.671875 684.460938 C 118.855469 684.695312 120.042969 684.902344 121.234375 685.078125 C 122.425781 685.253906 123.621094 685.402344 124.820312 685.519531 C 126.023438 685.636719 127.222656 685.726562 128.425781 685.785156 C 129.632812 685.84375 130.835938 685.875 132.042969 685.875 C 133.246094 685.875 134.449219 685.84375 135.65625 685.785156 C 136.859375 685.726562 138.058594 685.636719 139.261719 685.519531 C 140.460938 685.402344 141.65625 685.253906 142.847656 685.078125 C 144.039062 684.902344 145.226562 684.695312 146.410156 684.460938 C 147.589844 684.226562 148.765625 683.960938 149.9375 683.667969 C 151.105469 683.375 152.265625 683.054688 153.421875 682.703125 C 154.574219 682.355469 155.71875 681.976562 156.851562 681.570312 C 157.988281 681.164062 159.113281 680.730469 160.226562 680.269531 C 161.339844 679.808594 162.441406 679.320312 163.53125 678.804688 C 164.621094 678.289062 165.695312 677.746094 166.757812 677.179688 C 167.820312 676.609375 168.871094 676.015625 169.902344 675.398438 C 170.9375 674.777344 171.957031 674.132812 172.957031 673.460938 C 173.960938 672.792969 174.945312 672.097656 175.914062 671.382812 C 176.882812 670.664062 177.832031 669.921875 178.761719 669.15625 C 179.695312 668.394531 180.609375 667.605469 181.5 666.796875 C 182.394531 665.988281 183.265625 665.15625 184.117188 664.304688 C 184.972656 663.453125 185.800781 662.578125 186.613281 661.6875 C 187.421875 660.792969 188.207031 659.878906 188.972656 658.949219 C 189.738281 658.015625 190.476562 657.066406 191.195312 656.097656 C 191.914062 655.128906 192.609375 654.144531 193.277344 653.144531 C 193.949219 652.140625 194.59375 651.121094 195.210938 650.089844 C 195.832031 649.054688 196.425781 648.007812 196.992188 646.945312 C 197.5625 645.882812 198.105469 644.804688 198.617188 643.714844 C 199.132812 642.625 199.621094 641.523438 200.082031 640.410156 C 200.546875 639.296875 200.980469 638.171875 201.386719 637.039062 C 201.789062 635.902344 202.167969 634.757812 202.519531 633.605469 C 202.867188 632.453125 203.191406 631.289062 203.484375 630.121094 C 203.777344 628.953125 204.039062 627.777344 204.273438 626.59375 C 204.511719 625.410156 204.714844 624.226562 204.894531 623.03125 C 205.070312 621.839844 205.21875 620.644531 205.335938 619.445312 C 205.453125 618.246094 205.542969 617.042969 205.601562 615.839844 C 205.660156 614.636719 205.691406 613.429688 205.691406 612.226562 C 205.691406 611.019531 205.660156 609.816406 205.601562 608.613281 C 205.542969 607.410156 205.453125 606.207031 205.335938 605.007812 C 205.21875 603.808594 205.070312 602.613281 204.894531 601.417969 C 204.714844 600.226562 204.511719 599.039062 204.273438 597.859375 C 204.039062 596.675781 203.777344 595.5 203.484375 594.332031 C 203.191406 593.160156 202.867188 592 202.519531 590.847656 C 202.167969 589.695312 201.789062 588.550781 201.386719 587.414062 C 200.980469 586.28125 200.546875 585.15625 200.082031 584.042969 C 199.621094 582.929688 199.132812 581.828125 198.617188 580.738281 C 198.105469 579.648438 197.5625 578.570312 196.992188 577.507812 C 196.425781 576.445312 195.832031 575.398438 195.210938 574.363281 C 194.59375 573.328125 193.949219 572.3125 193.277344 571.308594 C 192.609375 570.304688 191.914062 569.320312 191.195312 568.351562 C 190.476562 567.386719 189.738281 566.433594 188.972656 565.503906 C 188.207031 564.570312 187.421875 563.660156 186.613281 562.765625 C 185.800781 561.875 184.972656 561 184.117188 560.148438 C 183.265625 559.296875 182.394531 558.464844 181.5 557.65625 C 180.609375 556.847656 179.695312 556.058594 178.761719 555.292969 C 177.832031 554.53125 176.882812 553.789062 175.914062 553.070312 C 174.945312 552.351562 173.960938 551.660156 172.957031 550.988281 C 171.957031 550.320312 170.9375 549.675781 169.902344 549.054688 C 168.871094 548.433594 167.820312 547.839844 166.757812 547.273438 C 165.695312 546.707031 164.621094 546.164062 163.53125 545.648438 C 162.441406 545.132812 161.339844 544.644531 160.226562 544.183594 C 159.113281 543.722656 157.988281 543.289062 156.851562 542.882812 C 155.71875 542.476562 154.574219 542.097656 153.421875 541.75 C 152.265625 541.398438 151.105469 541.078125 149.9375 540.785156 C 148.765625 540.492188 147.589844 540.226562 146.410156 539.992188 C 145.226562 539.757812 144.039062 539.550781 142.847656 539.375 C 141.65625 539.199219 140.460938 539.050781 139.261719 538.933594 C 138.058594 538.8125 136.859375 538.726562 135.65625 538.664062 C 134.449219 538.605469 133.246094 538.578125 132.042969 538.578125 Z M 132.042969 538.578125 "/>
<path style=" stroke:none;fill-rule:nonzero;fill:rgb(50.588989%,69.799805%,7.839966%);fill-opacity:1;" d="M 267.289062 538.578125 L 752.058594 538.578125 L 752.058594 686.167969 L 267.289062 686.167969 Z M 267.289062 538.578125 "/>
</g>
</svg>
