<?xml version="1.0" encoding="UTF-8"?>
<svg xmlns="http://www.w3.org/2000/svg" xmlns:xlink="http://www.w3.org/1999/xlink" width="810pt" height="809.999993pt" viewBox="0 0 810 809.999993" version="1.2">
<defs>
<clipPath id="clip1">
  <path d="M 60.609375 60.609375 L 749 60.609375 L 749 749 L 60.609375 749 Z M 60.609375 60.609375 "/>
</clipPath>
</defs>
<g id="surface1">
<g clip-path="url(#clip1)" clip-rule="nonzero">
<path style=" stroke:none;fill-rule:nonzero;fill:rgb(50.588989%,69.799805%,7.839966%);fill-opacity:1;" d="M 567.191406 445.761719 L 567.191406 445.785156 C 563.1875 461.566406 556.972656 476.613281 548.644531 490.460938 C 534.425781 514.3125 514.292969 534.445312 490.441406 548.664062 C 476.589844 556.972656 461.546875 563.210938 445.785156 567.210938 C 432.367188 570.582031 418.542969 572.296875 404.605469 572.296875 C 390.667969 572.296875 376.820312 570.582031 363.425781 567.210938 C 347.683594 563.234375 332.660156 556.992188 318.726562 548.664062 C 294.851562 534.445312 274.71875 514.3125 260.5 490.460938 C 252.171875 476.527344 245.933594 461.503906 241.953125 445.785156 C 238.585938 432.367188 236.867188 418.519531 236.867188 404.605469 C 236.867188 390.691406 238.585938 376.820312 241.953125 363.425781 C 245.933594 347.664062 252.171875 332.617188 260.5 318.679688 C 274.71875 294.851562 294.851562 274.742188 318.726562 260.5 C 332.660156 252.171875 347.683594 245.933594 363.402344 241.953125 C 390.191406 235.191406 419.019531 235.191406 445.761719 241.953125 C 461.566406 245.976562 476.613281 252.21875 490.460938 260.5 C 514.269531 274.699219 534.402344 294.832031 548.664062 318.726562 C 556.992188 332.660156 563.234375 347.707031 567.191406 363.425781 C 570.582031 376.820312 572.296875 390.667969 572.296875 404.605469 C 572.296875 418.542969 570.582031 432.390625 567.191406 445.761719 Z M 748.796875 404.605469 C 748.796875 384.035156 732.078125 367.296875 711.511719 367.296875 L 681.027344 367.296875 L 679.507812 358.164062 C 672.613281 316.964844 656.113281 277.15625 631.804688 243 L 626.4375 235.476562 L 648.003906 213.90625 C 662.527344 199.382812 662.527344 175.730469 648.003906 161.164062 C 633.457031 146.660156 609.78125 146.640625 595.257812 161.164062 L 573.691406 182.730469 L 566.144531 177.359375 C 532.011719 153.054688 492.203125 136.550781 451.023438 129.703125 L 441.890625 128.179688 L 441.890625 97.65625 C 441.890625 77.109375 425.171875 60.367188 404.605469 60.367188 C 384.035156 60.367188 367.296875 77.109375 367.296875 97.65625 L 367.296875 128.160156 L 358.164062 129.660156 C 316.984375 136.550781 277.132812 153.054688 243 177.359375 L 235.476562 182.730469 L 213.90625 161.164062 C 206.886719 154.140625 197.515625 150.269531 187.558594 150.269531 C 177.597656 150.269531 168.230469 154.140625 161.207031 161.164062 C 154.140625 168.230469 150.269531 177.597656 150.269531 187.578125 C 150.269531 197.535156 154.140625 206.886719 161.183594 213.90625 L 182.773438 235.476562 L 177.382812 243.019531 C 152.703125 277.609375 136.660156 316.355469 129.660156 358.164062 L 128.136719 367.296875 L 97.65625 367.296875 C 77.085938 367.296875 60.367188 384.035156 60.367188 404.605469 C 60.367188 425.152344 77.085938 441.890625 97.65625 441.890625 L 128.179688 441.890625 L 129.703125 451.046875 C 136.550781 492.203125 153.054688 532.011719 177.382812 566.144531 L 182.773438 573.691406 L 161.207031 595.257812 C 154.140625 602.28125 150.269531 611.652344 150.269531 621.609375 C 150.269531 631.589844 154.140625 640.960938 161.207031 648.003906 C 168.25 655.046875 177.597656 658.917969 187.535156 658.917969 C 197.492188 658.917969 206.863281 655.046875 213.90625 648.003906 L 235.453125 626.4375 L 243 631.804688 C 277.15625 656.113281 316.984375 672.613281 358.164062 679.507812 L 367.296875 681.027344 L 367.296875 711.511719 C 367.296875 732.058594 384.035156 748.796875 404.605469 748.796875 C 425.171875 748.796875 441.890625 732.058594 441.890625 711.511719 L 441.890625 680.984375 L 451.046875 679.464844 C 492.179688 672.613281 531.988281 656.136719 566.144531 631.804688 L 573.691406 626.4375 L 595.257812 648.003906 C 602.300781 655.046875 611.671875 658.917969 621.628906 658.917969 C 631.566406 658.917969 640.9375 655.046875 648.023438 647.980469 C 662.527344 633.4375 662.527344 609.78125 648.003906 595.257812 L 626.4375 573.691406 L 631.804688 566.167969 C 656.136719 532.011719 672.613281 492.203125 679.464844 451.046875 L 680.984375 441.890625 L 711.511719 441.890625 C 732.078125 441.890625 748.796875 425.152344 748.796875 404.605469 "/>
</g>
</g>
</svg>
